# xmcd
#
# Track frame offsets:
# 150
# 22632
# 39504
# 57632
# 78796
# 95181
# 106326
# 128360
# 153787
# 175156
#
# Disc length: 2559 seconds
#
# Revision: 1
# Processed by: cddbd v1.5.1PL0 Copyright (c) Steve Scherf et al.
# Submitted via: CedeCatalogueitor 2.6.0.5 http://personales.ya.com/cdcatalogueitor
#
DISCID=6b09fd0a
DTITLE=Uxía - Uxía - Recopilación
DYEAR=1900
DGENRE=
TTITLE0=Alalá Das Mariñas
TTITLE1=A Laranxa
TTITLE2=Tua Nai É Meiga
TTITLE3=Aquestas Noites Tan Longas
TTITLE4=Canto De Nadal
TTITLE5=Millo Verde
TTITLE6=Senhora Do Almortao
TTITLE7=Por Que Non Hei De Cantar      (Suite De Bembibre II)
TTITLE8=Verdes Sao Os Campos
TTITLE9=Agua De Pupila
EXTD=
EXTT0=
EXTT1=
EXTT2=
EXTT3=
EXTT4=
EXTT5=
EXTT6=
EXTT7=
EXTT8=
EXTT9=
PLAYORDER=
